<?xml version="1.0" standalone="no"?>
<!DOCTYPE svg PUBLIC "-//W3C//DTD SVG 20010904//EN"
 "http://www.w3.org/TR/2001/REC-SVG-20010904/DTD/svg10.dtd">
<svg version="1.0" xmlns="http://www.w3.org/2000/svg"
 width="512.000000pt" height="512.000000pt" viewBox="0 0 512.000000 512.000000"
 preserveAspectRatio="xMidYMid meet">

<g transform="translate(0.000000,512.000000) scale(0.100000,-0.100000)"
fill="#000000" stroke="none">
<path d="M3640 4405 c-85 -19 -135 -38 -245 -93 -81 -40 -201 -115 -263 -162
-20 -17 -27 -17 -75 -4 -153 42 -436 57 -642 34 -585 -65 -1013 -331 -1210
-753 -69 -148 -89 -238 -89 -397 0 -121 3 -144 27 -217 34 -102 108 -214 188
-287 193 -174 483 -216 714 -102 38 19 71 33 73 31 7 -7 -129 -259 -186 -345
-76 -114 -180 -216 -266 -260 -60 -30 -80 -35 -161 -38 -150 -7 -257 36 -346
137 -61 68 -86 127 -119 273 -17 72 -32 133 -34 135 -7 7 -145 -215 -191 -306
-130 -260 -169 -520 -111 -745 98 -381 381 -597 786 -600 147 -1 201 10 325
68 213 100 397 307 559 626 70 138 162 362 197 483 13 42 26 77 30 77 9 0 46
-96 59 -153 5 -23 23 -123 39 -222 36 -211 60 -302 105 -399 66 -143 168 -234
311 -279 84 -26 266 -30 355 -8 176 43 322 163 404 332 25 52 57 141 72 199
26 100 27 119 31 415 3 171 3 308 0 305 -2 -3 -46 -70 -97 -150 -51 -80 -106
-160 -123 -178 -38 -39 -116 -79 -174 -88 -79 -12 -185 59 -344 231 l-74 80
35 2 c263 19 495 132 654 319 178 210 245 444 202 709 -14 83 -56 228 -91 308
-6 15 -1 17 36 17 24 0 73 7 108 15 181 43 308 182 330 361 35 283 -142 530
-439 614 -100 28 -272 35 -360 15z m253 -96 c273 -42 447 -223 447 -465 0
-196 -136 -333 -335 -337 -87 -2 -152 16 -199 55 -38 31 -79 101 -90 153 -7
30 -6 31 32 27 32 -3 43 0 56 19 24 34 20 67 -12 99 -35 34 -87 50 -167 50
-54 0 -162 -21 -186 -36 -5 -3 17 -25 49 -49 85 -64 209 -198 274 -295 111
-167 177 -342 199 -526 40 -338 -173 -673 -510 -803 -111 -43 -190 -54 -361
-50 -131 4 -147 2 -137 -11 70 -91 234 -274 312 -348 70 -66 118 -102 171
-128 68 -34 78 -36 143 -32 92 7 181 48 251 119 l53 53 -6 -119 c-19 -414
-190 -657 -490 -697 -154 -21 -305 18 -391 100 -100 96 -149 223 -196 507 -36
220 -54 300 -85 371 -28 63 -86 129 -136 155 -46 23 -49 23 -49 3 0 -26 -58
-219 -107 -354 -60 -167 -179 -411 -260 -535 -79 -120 -240 -285 -331 -339
-130 -78 -258 -105 -419 -87 -121 14 -185 32 -273 76 -169 85 -283 236 -336
443 -53 210 -19 432 106 682 l48 95 16 -39 c9 -21 16 -42 16 -46 0 -16 81
-131 119 -169 146 -146 399 -190 589 -101 233 109 379 331 688 1050 218 508
325 707 491 912 35 44 63 81 61 83 -8 8 -192 25 -265 25 -169 0 -344 -42 -470
-112 -78 -43 -211 -178 -246 -249 -57 -114 -74 -257 -42 -350 43 -126 182
-198 303 -156 50 17 50 19 28 -96 -41 -212 -190 -357 -399 -389 -348 -53 -662
249 -632 606 40 475 445 863 1018 976 289 57 616 53 828 -10 l68 -21 88 64
c177 128 321 198 478 231 40 8 128 6 198 -5z m-1153 -594 c0 -2 -29 -48 -64
-102 -80 -122 -163 -277 -247 -457 l-64 -139 -5 75 -5 76 -89 -64 c-97 -70
-117 -75 -182 -45 -80 36 -106 150 -64 282 62 197 264 337 530 369 76 9 190
12 190 5z"/>
<path d="M3175 3658 c-95 -105 -245 -380 -345 -632 -80 -202 -211 -611 -199
-619 2 -2 27 -13 54 -25 46 -21 56 -22 125 -12 159 22 293 87 411 197 177 167
272 384 271 618 -1 179 -51 306 -166 421 -101 101 -106 103 -151 52z m106
-150 c244 -307 55 -852 -347 -1004 -62 -23 -184 -44 -184 -31 0 3 25 84 56
179 76 235 162 452 242 611 66 131 169 297 184 297 4 0 26 -24 49 -52z"/>
</g>
</svg>
